<?xml version="1.0" encoding="utf-8"?>
<!-- Generator: Adobe Illustrator 19.1.0, SVG Export Plug-In . SVG Version: 6.00 Build 0)  -->
<!DOCTYPE svg PUBLIC "-//W3C//DTD SVG 1.1//EN" "http://www.w3.org/Graphics/SVG/1.1/DTD/svg11.dtd">
<svg version="1.1" id="Layer_1" xmlns="http://www.w3.org/2000/svg" xmlns:xlink="http://www.w3.org/1999/xlink" x="0px" y="0px"
	 viewBox="0 0 100 100" style="enable-background:new 0 0 100 100;" xml:space="preserve">
<style type="text/css">
	.st0{clip-path:url(#SVGID_2_);}
	.st1{opacity:0.2;}
	.st2{fill:#1B66FF;}
	.st3{fill:#27272B;}
	.st4{fill:#FFFFFF;}
</style>
<g>
	<g>
		<defs>
			<circle id="SVGID_1_" cx="50.1" cy="50" r="50"/>
		</defs>
		<clipPath id="SVGID_2_">
			<use xlink:href="#SVGID_1_"  style="overflow:visible;"/>
		</clipPath>
		<g class="st0">
			<g class="st1">
				<path class="st2" d="M6.8,80.4l20.8-34.6l30.2,17.1l19.5-30l21.6,7.9c0,0,25.6,30.3,25.7,30.7S74,124.2,74,124.2l-68.9-7.8
					L6.8,80.4z"/>
			</g>
			<g>
				<rect x="26.9" y="45.8" class="st3" width="1.5" height="55.3"/>
			</g>
			<g>
				<rect x="56.8" y="62.1" class="st3" width="1.5" height="44.3"/>
			</g>
			<g>
				<rect x="77.1" y="32.9" class="st3" width="1.5" height="66.9"/>
			</g>
			<g>
				<polygon class="st3" points="8.7,79.1 7.4,78.3 27.4,44.8 57.6,61.9 77,32 97.8,39.6 97.3,41 77.6,33.8 58.1,63.9 27.9,46.8 
									"/>
			</g>
		</g>
	</g>
	<g>
		<path class="st3" d="M49.9,2.5c26.2,0,47.5,21.3,47.5,47.5S76.1,97.5,49.9,97.5S2.4,76.2,2.4,50S23.7,2.5,49.9,2.5 M49.9,0
			c-27.6,0-50,22.4-50,50s22.4,50,50,50s50-22.4,50-50S77.5,0,49.9,0L49.9,0z"/>
	</g>
	<g>
		<circle class="st4" cx="27.6" cy="45.8" r="4.3"/>
		<path class="st2" d="M27.6,50.8c-2.8,0-5-2.2-5-5s2.2-5,5-5c2.8,0,5,2.2,5,5S30.3,50.8,27.6,50.8z M27.6,42.3
			c-1.9,0-3.5,1.6-3.5,3.5s1.6,3.5,3.5,3.5s3.5-1.6,3.5-3.5S29.5,42.3,27.6,42.3z"/>
	</g>
	<g>
		<circle class="st4" cx="57.5" cy="62.1" r="4.3"/>
		<path class="st2" d="M57.5,67.1c-2.8,0-5-2.2-5-5s2.2-5,5-5s5,2.2,5,5S60.3,67.1,57.5,67.1z M57.5,58.5c-1.9,0-3.5,1.6-3.5,3.5
			s1.6,3.5,3.5,3.5s3.5-1.6,3.5-3.5S59.5,58.5,57.5,58.5z"/>
	</g>
	<g>
		<circle class="st4" cx="77.4" cy="32.9" r="4.3"/>
		<path class="st2" d="M77.4,37.9c-2.8,0-5-2.2-5-5c0-2.8,2.2-5,5-5s5,2.2,5,5C82.4,35.7,80.2,37.9,77.4,37.9z M77.4,29.4
			c-1.9,0-3.5,1.6-3.5,3.5s1.6,3.5,3.5,3.5c1.9,0,3.5-1.6,3.5-3.5S79.3,29.4,77.4,29.4z"/>
	</g>
</g>
</svg>
