<?xml version="1.0" encoding="utf-8"?>
<!-- Generator: Adobe Illustrator 19.1.0, SVG Export Plug-In . SVG Version: 6.00 Build 0)  -->
<!DOCTYPE svg PUBLIC "-//W3C//DTD SVG 1.1//EN" "http://www.w3.org/Graphics/SVG/1.1/DTD/svg11.dtd">
<svg version="1.1" id="Layer_1" xmlns="http://www.w3.org/2000/svg" xmlns:xlink="http://www.w3.org/1999/xlink" x="0px" y="0px"
	 viewBox="0 0 100 100" style="enable-background:new 0 0 100 100;" xml:space="preserve">
<style type="text/css">
	.st0{opacity:0.2;}
	.st1{fill:#1B66FF;}
</style>
<g>
	<g>
		<path d="M32.7,96.7l-1.5,0L31.4,70c-2-2.2-16.1-18.9-4.2-38c6.9-9.2,20-13.2,31.8-9.7c11.5,3.4,18.8,12.8,19.7,25.3l0,6.6L83.5,66
			c0.1,0.3,0,0.6-0.2,0.8c-0.1,0.1-2.2,1.9-5.5,2.2v9.5c0,0.4,0.2,1.9-0.9,3.3c-1.2,1.5-3.2,2.2-6.1,2.4c-5.5,0.2-9.1,1-10.4,1.3
			l0,10.9l-1.5,0l0-11.5c0-0.3,0.2-0.6,0.5-0.7c0.2,0,4.2-1.2,11.3-1.5c2.4-0.1,4.1-0.7,4.9-1.8c0.8-1,0.7-2.2,0.6-2.2
			c0,0,0-0.1,0-0.1V68.3c0-0.4,0.3-0.8,0.8-0.8c2.3,0,4-1,4.8-1.5l-4.6-11.4c0-0.1-0.1-0.2-0.1-0.3v-6.7
			c-0.8-11.8-7.8-20.7-18.6-23.9c-11.2-3.3-23.6,0.4-30.1,9.1C16.3,52.1,32.5,69,32.7,69.1c0.1,0.1,0.2,0.3,0.2,0.5L32.7,96.7z"/>
	</g>
	<g class="st0">
		<path class="st1" d="M32.3,69.5c-5.7-5.1-9.2-12.4-9.2-20.7c-0.4-16.4,12-27.2,27.2-27.2S78,33.5,78,48.8
			c0,12.2,4.8,17.5,4.8,17.5l-3.7,1.9l-2,0.1l-0.2,11l-1.4,2.8l-3.6,1.5l-12.2,1.3l0,11.1l-14.2,2.4l-13.6-1.8L32.3,69.5z"/>
	</g>
	<g>
		<path d="M50,2.5c26.2,0,47.5,21.3,47.5,47.5S76.2,97.5,50,97.5S2.5,76.2,2.5,50S23.8,2.5,50,2.5 M50,0C22.4,0,0,22.4,0,50
			s22.4,50,50,50s50-22.4,50-50S77.6,0,50,0L50,0z"/>
	</g>
	<g>
		<rect x="25.4" y="13.5" transform="matrix(0.7601 0.6498 -0.6498 0.7601 18.1792 -20.6834)" width="23.4" height="1.5"/>
	</g>
	<g>
		<path d="M31.6,70.2L28,67l-12.2-3.8c-0.3-0.1-0.5-0.4-0.5-0.7c0-0.1-0.1-2.9,1.8-5.6l-7.3-6c-0.3-0.2-1.6-1.1-2-2.8
			c-0.4-1.8,0.3-3.9,2-6.2c3.3-4.4,5.1-7.7,5.6-8.9L7.3,26l1-1.1l8.6,7.5c0.2,0.2,0.3,0.6,0.2,0.9c-0.1,0.2-1.7,4-6.1,9.7
			c-1.4,1.9-2,3.6-1.8,4.9c0.3,1.3,1.3,1.9,1.3,1.9c0,0,0.1,0,0.1,0.1l7.9,6.5c0.2,0.1,0.3,0.3,0.3,0.5c0,0.2,0,0.4-0.2,0.5
			c-1.5,1.8-1.8,3.8-1.9,4.7l11.8,3.6c0.1,0,0.2,0.1,0.3,0.1l3.8,3.3L31.6,70.2z"/>
	</g>
	<g>
		<path class="st1" d="M63.2,55.3l-1.1-1.1l6.1-6.1L62.1,42l1.1-1.1l6.6,6.6c0.1,0.1,0.2,0.3,0.2,0.5s-0.1,0.4-0.2,0.5L63.2,55.3z"
			/>
	</g>
	<g>
		<path class="st1" d="M41.5,55.3l-6.6-6.6c-0.3-0.3-0.3-0.8,0-1.1l6.6-6.6l1.1,1.1l-6.1,6.1l6.1,6.1L41.5,55.3z"/>
	</g>
	<g>
		
			<rect x="51.5" y="41.9" transform="matrix(0.7071 0.7071 -0.7071 0.7071 49.1617 -22.8919)" class="st1" width="1.5" height="12"/>
	</g>
	<g>
		<g>
			<path d="M77.5,45c-0.4,0-0.7-0.3-0.7-0.7c-0.1-0.8-0.2-1.6-0.4-2.4c-0.1-0.4,0.2-0.8,0.6-0.9c0.4-0.1,0.8,0.2,0.9,0.6
				c0.2,0.8,0.3,1.7,0.4,2.5c0.1,0.4-0.2,0.8-0.6,0.8C77.6,45,77.5,45,77.5,45z"/>
		</g>
		<g>
			<path d="M49.5,77.3C49.5,77.3,49.5,77.3,49.5,77.3c-1.8-0.1-3.5-0.3-5.2-0.8c-0.4-0.1-0.6-0.5-0.6-0.9c0.1-0.4,0.5-0.7,0.9-0.6
				c1.6,0.4,3.3,0.6,4.9,0.7c0.4,0,0.7,0.4,0.7,0.8C50.3,76.9,49.9,77.3,49.5,77.3z M55.2,76.9c-0.4,0-0.7-0.3-0.7-0.6
				c-0.1-0.4,0.2-0.8,0.6-0.9c1.6-0.3,3.2-0.7,4.8-1.3c0.4-0.1,0.8,0,1,0.4c0.1,0.4,0,0.8-0.4,1c-1.6,0.6-3.3,1.1-5.1,1.4
				C55.2,76.9,55.2,76.9,55.2,76.9z M39.2,74.7c-0.1,0-0.2,0-0.3-0.1c-1.5-0.7-3.1-1.6-4.6-2.5c-0.3-0.2-0.4-0.7-0.2-1
				c0.2-0.3,0.7-0.4,1-0.2c1.4,0.9,2.9,1.7,4.4,2.4c0.4,0.2,0.5,0.6,0.4,1C39.7,74.5,39.5,74.7,39.2,74.7z M65.1,73
				c-0.2,0-0.5-0.1-0.6-0.3c-0.2-0.3-0.1-0.8,0.2-1c1.4-0.9,2.7-2,3.9-3.1c0.3-0.3,0.8-0.3,1.1,0c0.3,0.3,0.3,0.8,0,1.1
				c-1.3,1.2-2.6,2.3-4.1,3.3C65.4,72.9,65.2,73,65.1,73z M72.7,65.5c-0.1,0-0.3,0-0.4-0.1c-0.3-0.2-0.4-0.7-0.2-1
				c0.9-1.4,1.8-2.8,2.4-4.3c0.2-0.4,0.6-0.5,1-0.4c0.4,0.2,0.5,0.6,0.4,1c-0.7,1.6-1.6,3.1-2.6,4.6C73.2,65.4,72.9,65.5,72.7,65.5z
				 M77,55.7c-0.1,0-0.1,0-0.2,0c-0.4-0.1-0.7-0.5-0.6-0.9c0.4-1.6,0.6-3.3,0.7-4.9c0-0.4,0.3-0.7,0.8-0.7c0.4,0,0.7,0.4,0.7,0.8
				c-0.1,1.7-0.3,3.5-0.7,5.2C77.7,55.5,77.3,55.7,77,55.7z"/>
		</g>
		<g>
			<path d="M30.4,68.5c-0.2,0-0.4-0.1-0.5-0.2l-1.8-1.7c-0.3-0.3-0.3-0.8,0-1.1c0.3-0.3,0.8-0.3,1.1,0l1.8,1.7
				c0.3,0.3,0.3,0.8,0,1.1C30.8,68.4,30.6,68.5,30.4,68.5z"/>
		</g>
	</g>
</g>
</svg>
