<?xml version="1.0" encoding="UTF-8" standalone="no"?>
<svg width="74px" height="66px" viewBox="0 0 74 66" version="1.1" xmlns="http://www.w3.org/2000/svg" xmlns:xlink="http://www.w3.org/1999/xlink" xmlns:sketch="http://www.bohemiancoding.com/sketch/ns">
    <!-- Generator: Sketch 3.3.3 (12072) - http://www.bohemiancoding.com/sketch -->
    <title>reactive</title>
    <desc>Created with Sketch.</desc>
    <defs></defs>
    <g id="Page-1" stroke="none" stroke-width="1" fill="none" fill-rule="evenodd" sketch:type="MSPage">
        <g id="reactive" sketch:type="MSLayerGroup">
            <path d="M27.694,28.698 L3.084,28.698 C2.393,28.698 1.832,28.136 1.832,27.445 L1.832,3.263 C1.832,2.576 2.391,2.017 3.078,2.017 L39.767,2.017 C40.454,2.017 41.012,2.576 41.012,3.263 L41.012,22.94 C41.012,23.446 41.423,23.856 41.928,23.856 C42.434,23.856 42.844,23.446 42.844,22.94 L42.844,3.263 C42.844,1.565 41.464,0.185 39.767,0.185 L3.078,0.185 C1.381,0.185 0,1.565 0,3.263 L0,27.445 C0,29.146 1.384,30.529 3.084,30.529 L27.694,30.529 C28.2,30.529 28.61,30.119 28.61,29.614 C28.61,29.108 28.2,28.698 27.694,28.698" id="Fill-1" fill="#343135" sketch:type="MSShapeGroup"></path>
            <path d="M27.694,25.338 L6.87,25.338 L6.87,5.376 L35.974,5.376 L35.974,22.94 C35.974,23.446 36.384,23.856 36.89,23.856 C37.396,23.856 37.806,23.446 37.806,22.94 L37.806,4.46 C37.806,3.954 37.396,3.544 36.89,3.544 L5.954,3.544 C5.448,3.544 5.038,3.954 5.038,4.46 L5.038,26.254 C5.038,26.76 5.448,27.17 5.954,27.17 L27.694,27.17 C28.2,27.17 28.61,26.76 28.61,26.254 C28.61,25.748 28.2,25.338 27.694,25.338" id="Fill-2" fill="#343135" sketch:type="MSShapeGroup"></path>
            <path d="M2.804,14.708 C2.633,14.879 2.535,15.117 2.535,15.356 C2.535,15.597 2.633,15.835 2.804,16.006 C2.975,16.174 3.21,16.275 3.451,16.275 C3.692,16.275 3.927,16.174 4.098,16.006 C4.269,15.832 4.367,15.597 4.367,15.356 C4.367,15.117 4.269,14.879 4.098,14.708 C3.756,14.369 3.143,14.369 2.804,14.708" id="Fill-3" fill="#343135" sketch:type="MSShapeGroup"></path>
            <path d="M70.673,25.455 L33.984,25.455 C32.287,25.455 30.906,26.835 30.906,28.532 L30.906,52.715 C30.906,54.415 32.29,55.799 33.99,55.799 L47.792,55.799 L47.792,57.971 L47.276,57.971 C45.576,57.971 44.192,59.355 44.192,61.055 L44.192,61.704 C44.192,62.21 44.603,62.62 45.108,62.62 L59.548,62.62 C60.054,62.62 60.464,62.21 60.464,61.704 L60.464,61.055 C60.464,59.355 59.081,57.971 57.38,57.971 L56.865,57.971 L56.865,55.799 L70.667,55.799 C72.367,55.799 73.75,54.415 73.75,52.715 L73.75,28.532 C73.75,26.835 72.37,25.455 70.673,25.455 L70.673,25.455 Z M58.603,60.788 L46.053,60.788 C46.176,60.225 46.678,59.803 47.276,59.803 L57.38,59.803 C57.979,59.803 58.481,60.225 58.603,60.788 L58.603,60.788 Z M49.623,55.799 L55.033,55.799 L55.033,57.971 L49.623,57.971 L49.623,55.799 Z M71.919,52.715 C71.919,53.405 71.357,53.967 70.667,53.967 L33.99,53.967 C33.3,53.967 32.738,53.405 32.738,52.715 L32.738,28.532 C32.738,27.845 33.297,27.287 33.984,27.287 L70.673,27.287 C71.36,27.287 71.919,27.845 71.919,28.532 L71.919,52.715 L71.919,52.715 Z" id="Fill-4" fill="#343135" sketch:type="MSShapeGroup"></path>
            <path d="M69.789,28.501 L34.868,28.501 C34.362,28.501 33.952,28.911 33.952,29.417 L33.952,48.97 C33.952,49.476 34.362,49.886 34.868,49.886 L69.789,49.886 C70.295,49.886 70.705,49.476 70.705,48.97 L70.705,29.417 C70.705,28.911 70.295,28.501 69.789,28.501 L69.789,28.501 Z M35.784,30.333 L68.873,30.333 L68.873,48.054 L35.784,48.054 L35.784,30.333 Z" id="Fill-5" fill="#343135" sketch:type="MSShapeGroup"></path>
            <path d="M20.696,20.553 C20.812,20.601 20.932,20.624 21.05,20.624 C21.408,20.624 21.748,20.413 21.895,20.062 L24.19,14.58 C24.335,14.235 24.255,13.836 23.988,13.573 C23.721,13.311 23.321,13.237 22.978,13.387 L21.287,14.128 L22.502,11.376 C22.706,10.914 22.496,10.373 22.034,10.169 C21.571,9.965 21.03,10.174 20.826,10.636 L18.661,15.54 C18.508,15.886 18.584,16.289 18.85,16.557 C19.117,16.824 19.52,16.901 19.866,16.749 L21.617,15.983 L20.205,19.354 C20.01,19.821 20.23,20.357 20.696,20.553" id="Fill-6" fill="#85BF44" sketch:type="MSShapeGroup"></path>
            <path d="M50.772,40.585 L52.523,39.819 L51.112,43.191 C50.916,43.657 51.136,44.194 51.603,44.389 C51.718,44.438 51.838,44.461 51.956,44.461 C52.314,44.461 52.654,44.249 52.801,43.898 L55.096,38.416 C55.241,38.071 55.161,37.672 54.894,37.41 C54.627,37.147 54.227,37.073 53.884,37.224 L52.193,37.964 L53.408,35.212 C53.612,34.749 53.402,34.209 52.94,34.004 C52.477,33.801 51.936,34.01 51.732,34.472 L49.567,39.376 C49.415,39.722 49.49,40.125 49.756,40.393 C50.023,40.66 50.426,40.737 50.772,40.585" id="Fill-7" fill="#85BF44" sketch:type="MSShapeGroup"></path>
            <path d="M17.254,47.278 C16.897,46.92 16.317,46.92 15.959,47.278 L13.083,50.155 L13.082,50.155 L2.058,61.179 C1.701,61.536 1.701,62.116 2.058,62.474 L4.446,64.862 C4.625,65.041 4.86,65.13 5.094,65.13 C5.328,65.13 5.563,65.041 5.741,64.862 L19.642,50.961 C20,50.603 20,50.023 19.642,49.666 L17.254,47.278 L17.254,47.278 Z M5.094,62.919 L4.001,61.826 L13.73,52.098 L14.823,53.19 L5.094,62.919 L5.094,62.919 Z M16.118,51.895 L15.025,50.802 L16.607,49.221 L17.699,50.313 L16.118,51.895 L16.118,51.895 Z" id="Fill-8" fill="#343135" sketch:type="MSShapeGroup"></path>
            <path d="M23.627,43.246 C23.269,42.888 22.689,42.888 22.332,43.246 L20.34,45.237 C19.982,45.595 19.982,46.175 20.34,46.532 C20.518,46.711 20.753,46.801 20.987,46.801 C21.222,46.801 21.456,46.711 21.635,46.532 L23.627,44.541 C23.985,44.183 23.985,43.603 23.627,43.246" id="Fill-9" fill="#343135" sketch:type="MSShapeGroup"></path>
            <path d="M18.106,43.444 L18.106,40.627 C18.106,40.121 17.696,39.711 17.19,39.711 C16.684,39.711 16.274,40.121 16.274,40.627 L16.274,43.444 C16.274,43.95 16.684,44.36 17.19,44.36 C17.696,44.36 18.106,43.95 18.106,43.444" id="Fill-10" fill="#343135" sketch:type="MSShapeGroup"></path>
            <path d="M26.245,48.766 L23.428,48.766 C22.923,48.766 22.513,49.176 22.513,49.682 C22.513,50.188 22.923,50.598 23.428,50.598 L26.245,50.598 C26.751,50.598 27.161,50.188 27.161,49.682 C27.161,49.176 26.751,48.766 26.245,48.766" id="Fill-11" fill="#343135" sketch:type="MSShapeGroup"></path>
        </g>
    </g>
</svg>