<?xml version="1.0" encoding="utf-8"?>
<!-- Generator: Adobe Illustrator 19.1.0, SVG Export Plug-In . SVG Version: 6.00 Build 0)  -->
<!DOCTYPE svg PUBLIC "-//W3C//DTD SVG 1.1//EN" "http://www.w3.org/Graphics/SVG/1.1/DTD/svg11.dtd">
<svg version="1.1" id="Layer_1" xmlns="http://www.w3.org/2000/svg" xmlns:xlink="http://www.w3.org/1999/xlink" x="0px" y="0px"
	 viewBox="0 0 100 100" style="enable-background:new 0 0 100 100;" xml:space="preserve">
<style type="text/css">
	.st0{opacity:0.3;}
	.st1{fill:#1B66FF;}
	.st2{fill:#27272B;}
</style>
<g>
	<g class="st0">
		<rect x="26" y="28.5" class="st1" width="48.1" height="7.6"/>
	</g>
	<g>
		<path class="st2" d="M71.5,73.7H28.2c-2,0-3.6-1.6-3.6-3.6V30.8c0-2,1.6-3.6,3.6-3.6h43.3c2,0,3.6,1.6,3.6,3.6v39.3
			C75.1,72.1,73.5,73.7,71.5,73.7z M28.2,29.2c-0.9,0-1.6,0.7-1.6,1.6v39.3c0,0.9,0.7,1.6,1.6,1.6h43.3c0.9,0,1.6-0.7,1.6-1.6V30.8
			c0-0.9-0.7-1.6-1.6-1.6H28.2z"/>
	</g>
	<g>
		<path class="st2" d="M50,99.8c-27.6,0-50-22.4-50-50c0-27.6,22.4-50,50-50s50,22.4,50,50C100,77.3,77.6,99.8,50,99.8z M50,2.3
			C23.9,2.3,2.6,23.6,2.6,49.8S23.9,97.2,50,97.2s47.4-21.3,47.4-47.4S76.1,2.3,50,2.3z"/>
	</g>
	<g>
		<rect x="25" y="34" class="st2" width="50" height="2"/>
	</g>
	<g>
		<g>
			<path class="st1" d="M64.2,59.3H59c-0.7,0-1.3-0.6-1.3-1.3c0-0.7,0.6-1.3,1.3-1.3h5.2c0.7,0,1.3,0.6,1.3,1.3
				C65.5,58.7,64.9,59.3,64.2,59.3z M53.8,59.3h-2.6c-0.7,0-1.3-0.6-1.3-1.3c0-0.7,0.6-1.3,1.3-1.3h2.6c0.7,0,1.3,0.6,1.3,1.3
				C55.1,58.7,54.5,59.3,53.8,59.3z M46,59.3h-5.2c-0.7,0-1.3-0.6-1.3-1.3c0-0.7,0.6-1.3,1.3-1.3H46c0.7,0,1.3,0.6,1.3,1.3
				C47.3,58.7,46.7,59.3,46,59.3z M35.6,59.3H33c-0.7,0-1.3-0.6-1.3-1.3c0-0.7,0.6-1.3,1.3-1.3h2.6c0.7,0,1.3,0.6,1.3,1.3
				C36.9,58.7,36.3,59.3,35.6,59.3z"/>
		</g>
	</g>
	<g>
		<g>
			<path class="st1" d="M66.3,51h-2.6c-0.7,0-1.3-0.6-1.3-1.3c0-0.7,0.6-1.3,1.3-1.3h2.6c0.7,0,1.3,0.6,1.3,1.3
				C67.6,50.4,67,51,66.3,51z M58.5,51h-2.6c-0.7,0-1.3-0.6-1.3-1.3c0-0.7,0.6-1.3,1.3-1.3h2.6c0.7,0,1.3,0.6,1.3,1.3
				C59.8,50.4,59.2,51,58.5,51z M50.7,51h-5.2c-0.7,0-1.3-0.6-1.3-1.3c0-0.7,0.6-1.3,1.3-1.3h5.2c0.7,0,1.3,0.6,1.3,1.3
				C52,50.4,51.4,51,50.7,51z M40.3,51h-2.6c-0.7,0-1.3-0.6-1.3-1.3c0-0.7,0.6-1.3,1.3-1.3h2.6c0.7,0,1.3,0.6,1.3,1.3
				C41.6,50.4,41,51,40.3,51z"/>
		</g>
	</g>
	<g>
		<g>
			<path class="st1" d="M46.1,42.7h-5.2c-0.7,0-1.3-0.6-1.3-1.3c0-0.7,0.6-1.3,1.3-1.3h5.2c0.7,0,1.3,0.6,1.3,1.3
				C47.4,42.1,46.9,42.7,46.1,42.7z M35.7,42.7h-2.6c-0.7,0-1.3-0.6-1.3-1.3c0-0.7,0.6-1.3,1.3-1.3h2.6c0.7,0,1.3,0.6,1.3,1.3
				C37,42.1,36.5,42.7,35.7,42.7z"/>
		</g>
	</g>
	<g>
		<circle class="st2" cx="29.7" cy="31.9" r="1.3"/>
	</g>
	<g>
		<circle class="st2" cx="33.6" cy="31.9" r="1.3"/>
	</g>
	<g>
		<circle class="st2" cx="37.5" cy="31.9" r="1.3"/>
	</g>
</g>
</svg>
